<svg width="1249" height="630" viewBox="0 0 1249 630" fill="none" xmlns="http://www.w3.org/2000/svg">
<g clip-path="url(#clip0_9_257)">
<rect width="1249" height="630" rx="16" fill="white" fill-opacity="0.1"/>
<g clip-path="url(#clip1_9_257)">
<rect width="1037" height="583" transform="translate(212)" fill="#191919"/>
<rect x="493" y="-69.8723" width="123.281" height="123.281" rx="13.6034" stroke="#595959" stroke-width="1.27532"/>
<rect x="616.281" y="-69.8724" width="123.281" height="123.281" rx="13.6034" stroke="#595959" stroke-width="1.27532"/>
<rect x="739.563" y="-69.8724" width="123.281" height="123.281" rx="13.6034" stroke="#595959" stroke-width="1.27532"/>
<rect x="862.844" y="-69.8724" width="123.281" height="123.281" rx="13.6034" stroke="#595959" stroke-width="1.27532"/>
<rect x="986.125" y="-69.8724" width="123.281" height="123.281" rx="13.6034" stroke="#595959" stroke-width="1.27532"/>
<rect x="1109.41" y="-69.8724" width="123.281" height="123.281" rx="13.6034" stroke="#595959" stroke-width="1.27532"/>
<rect x="371" y="53" width="123.281" height="123.281" rx="13.6034" stroke="#595959" stroke-width="1.27532"/>
<rect x="494.281" y="53" width="123.281" height="123.281" rx="13.6034" stroke="#595959" stroke-width="1.27532"/>
<rect x="617.563" y="53" width="123.281" height="123.281" rx="13.6034" stroke="#595959" stroke-width="1.27532"/>
<rect x="740.844" y="53" width="123.281" height="123.281" rx="13.6034" stroke="#595959" stroke-width="1.27532"/>
<rect x="864.125" y="53" width="123.281" height="123.281" rx="13.6034" stroke="#595959" stroke-width="1.27532"/>
<rect x="987.406" y="53" width="123.281" height="123.281" rx="13.6034" stroke="#595959" stroke-width="1.27532"/>
<rect x="493" y="176.69" width="123.281" height="123.281" rx="13.6034" stroke="#595959" stroke-width="1.27532"/>
<rect x="616.281" y="176.69" width="123.281" height="123.281" rx="13.6034" stroke="#595959" stroke-width="1.27532"/>
<rect x="739.563" y="176.69" width="123.281" height="123.281" rx="13.6034" stroke="#595959" stroke-width="1.27532"/>
<rect x="862.844" y="176.69" width="123.281" height="123.281" rx="13.6034" stroke="#595959" stroke-width="1.27532"/>
<rect x="986.125" y="176.69" width="123.281" height="123.281" rx="13.6034" stroke="#595959" stroke-width="1.27532"/>
<rect x="1109.41" y="176.69" width="123.281" height="123.281" rx="13.6034" stroke="#595959" stroke-width="1.27532"/>
<rect x="493" y="299.971" width="123.281" height="123.281" rx="13.6034" stroke="#595959" stroke-width="1.27532"/>
<rect x="616.281" y="299.972" width="123.281" height="123.281" rx="13.6034" stroke="#595959" stroke-width="1.27532"/>
<rect x="739.563" y="299.972" width="123.281" height="123.281" rx="13.6034" stroke="#595959" stroke-width="1.27532"/>
<rect x="862.844" y="299.972" width="123.281" height="123.281" rx="13.6034" stroke="#595959" stroke-width="1.27532"/>
<rect x="986.125" y="299.972" width="123.281" height="123.281" rx="13.6034" stroke="#595959" stroke-width="1.27532"/>
<rect x="1109.41" y="299.972" width="123.281" height="123.281" rx="13.6034" stroke="#595959" stroke-width="1.27532"/>
<rect x="371" y="423" width="123.281" height="123.281" rx="13.6034" stroke="#595959" stroke-width="1.27532"/>
<rect x="494.281" y="423" width="123.281" height="123.281" rx="13.6034" stroke="#595959" stroke-width="1.27532"/>
<rect x="617.563" y="423" width="123.281" height="123.281" rx="13.6034" stroke="#595959" stroke-width="1.27532"/>
<rect x="740.844" y="423" width="123.281" height="123.281" rx="13.6034" stroke="#595959" stroke-width="1.27532"/>
<rect x="864.125" y="423" width="123.281" height="123.281" rx="13.6034" stroke="#595959" stroke-width="1.27532"/>
<rect x="987.406" y="423" width="123.281" height="123.281" rx="13.6034" stroke="#595959" stroke-width="1.27532"/>
<rect x="1110.69" y="423" width="123.281" height="123.281" rx="13.6034" stroke="#595959" stroke-width="1.27532"/>
<rect x="1233.97" y="423" width="123.281" height="123.281" rx="13.6034" stroke="#595959" stroke-width="1.27532"/>
<rect x="493" y="546.534" width="123.281" height="123.281" rx="13.6034" stroke="#595959" stroke-width="1.27532"/>
<rect x="616.281" y="546.534" width="123.281" height="123.281" rx="13.6034" stroke="#595959" stroke-width="1.27532"/>
<rect x="739.563" y="546.534" width="123.281" height="123.281" rx="13.6034" stroke="#595959" stroke-width="1.27532"/>
<rect x="862.844" y="546.534" width="123.281" height="123.281" rx="13.6034" stroke="#595959" stroke-width="1.27532"/>
<rect x="986.125" y="546.534" width="123.281" height="123.281" rx="13.6034" stroke="#595959" stroke-width="1.27532"/>
<rect x="1109.41" y="546.534" width="123.281" height="123.281" rx="13.6034" stroke="#595959" stroke-width="1.27532"/>
<path d="M986.125 -59.6698V39.8054C986.125 47.3184 992.215 53.4089 999.728 53.4089H1095.8C1103.32 53.4089 1109.41 59.4993 1109.41 67.0123V163.087C1109.41 170.6 1115.5 176.69 1123.01 176.69H1219.08C1226.6 176.69 1232.69 182.781 1232.69 190.294V286.368C1232.69 293.881 1238.78 299.971 1246.29 299.971H1342.37C1349.88 299.971 1355.97 306.062 1355.97 313.575V409.649C1355.97 417.162 1362.06 423.253 1369.57 423.253H1469.05M862.844 -59.6698V39.8054C862.844 47.3184 868.934 53.4089 876.447 53.4089H972.522C980.035 53.4089 986.125 59.4993 986.125 67.0123V163.087C986.125 170.6 992.215 176.69 999.728 176.69H1095.8C1103.32 176.69 1109.41 182.781 1109.41 190.294V286.368C1109.41 293.881 1103.32 299.971 1095.8 299.971H999.728C992.215 299.971 986.125 293.881 986.125 286.368V188.593L986.006 187.79C985.093 181.628 979.863 177.028 973.636 176.908L962.319 176.69H876.447C868.934 176.69 862.844 182.781 862.844 190.294V286.368C862.844 293.881 868.934 299.971 876.447 299.971H973.372L976.601 300.187C981.96 300.544 986.125 304.995 986.125 310.367V320.802M986.125 310.174V409.649C986.125 417.162 992.215 423.253 999.728 423.253H1095.8C1103.32 423.253 1109.41 429.343 1109.41 436.856V532.93C1109.41 540.443 1115.5 546.534 1123.01 546.534H1219.08C1226.6 546.534 1232.69 552.624 1232.69 560.137V656.212C1232.69 663.725 1238.78 669.815 1246.29 669.815H1342.37C1349.88 669.815 1355.97 675.906 1355.97 683.419V779.493C1355.97 787.006 1362.06 793.096 1369.57 793.096H1469.05" stroke="url(#paint0_linear_9_257)" stroke-opacity="0.8" stroke-width="1.27532"/>
<rect x="321" y="755" width="716" height="370" transform="rotate(-90 321 755)" fill="url(#paint1_linear_9_257)"/>
<rect x="995.225" y="711.844" width="691.225" height="369.844" transform="rotate(180 995.225 711.844)" fill="url(#paint2_linear_9_257)"/>
<rect x="1678.23" y="819.844" width="691.225" height="369.844" transform="rotate(180 1678.23 819.844)" fill="url(#paint3_linear_9_257)"/>
<rect x="128.885" y="-263.946" width="1183.35" height="339.002" transform="rotate(0.121329 128.885 -263.946)" fill="url(#paint4_linear_9_257)"/>
<ellipse cx="730.967" cy="-92.0506" rx="459.967" ry="391.949" fill="url(#paint5_radial_9_257)"/>
</g>
<rect x="-89.1562" y="322" width="123.281" height="123.281" rx="13.6034" stroke="#595959" stroke-width="1.27532"/>
<rect x="34.1248" y="322" width="123.281" height="123.281" rx="13.6034" stroke="#595959" stroke-width="1.27532"/>
<rect x="157.406" y="322" width="123.281" height="123.281" rx="13.6034" stroke="#595959" stroke-width="1.27532"/>
<path d="M32.2813 -39V60.4752C32.2813 67.9882 38.3717 74.0787 45.8847 74.0787H141.959C149.472 74.0787 155.563 80.1691 155.563 87.6821V183.756C155.563 191.269 161.653 197.36 169.166 197.36H265.24C272.753 197.36 278.844 203.45 278.844 210.963V307.038C278.844 314.551 284.934 320.641 292.447 320.641H388.522C396.035 320.641 402.125 326.732 402.125 334.245V430.319C402.125 437.832 408.215 443.922 415.728 443.922H515.204M-91 -39V60.4752C-91 67.9882 -84.9095 74.0787 -77.3966 74.0787H18.6778C26.1908 74.0787 32.2813 80.1691 32.2813 87.6821V183.756C32.2813 191.269 38.3717 197.36 45.8847 197.36H141.959C149.472 197.36 155.563 203.45 155.563 210.963V307.038C155.563 314.551 149.472 320.641 141.959 320.641H45.8847C38.3717 320.641 32.2813 314.551 32.2813 307.038V209.263L32.1622 208.459C31.2494 202.298 26.0194 197.697 19.7919 197.578L8.47522 197.36H-77.3966C-84.9095 197.36 -91 203.45 -91 210.963V307.038C-91 314.551 -84.9095 320.641 -77.3966 320.641H19.528L22.7573 320.856C28.1167 321.214 32.2813 325.665 32.2813 331.036V341.471M32.2813 330.844V430.319C32.2813 437.832 38.3717 443.922 45.8847 443.922H141.959C149.472 443.922 155.563 450.013 155.563 457.526V553.6C155.563 561.113 161.653 567.204 169.166 567.204H265.24C272.753 567.204 278.844 573.294 278.844 580.807V676.881C278.844 684.394 284.934 690.485 292.447 690.485H388.522C396.035 690.485 402.125 696.575 402.125 704.088V800.163C402.125 807.676 408.215 813.766 415.728 813.766H515.204" stroke="url(#paint6_linear_9_257)" stroke-opacity="0.8" stroke-width="1.27532"/>
<rect x="515.277" y="-30" width="716" height="619.278" transform="rotate(89.9613 515.277 -30)" fill="url(#paint7_linear_9_257)"/>
</g>
<defs>
<linearGradient id="paint0_linear_9_257" x1="862.844" y1="-59.6698" x2="1455.44" y2="673.641" gradientUnits="userSpaceOnUse">
<stop stop-color="#3170D7"/>
<stop offset="0.9375" stop-color="#78D2F8"/>
</linearGradient>
<linearGradient id="paint1_linear_9_257" x1="679" y1="755" x2="679.205" y2="1125.16" gradientUnits="userSpaceOnUse">
<stop stop-color="#191919"/>
<stop offset="0.666667" stop-color="#191919" stop-opacity="0.79"/>
<stop offset="1" stop-color="#191919" stop-opacity="0"/>
</linearGradient>
<linearGradient id="paint2_linear_9_257" x1="1340.84" y1="711.844" x2="1341.05" y2="1081.84" gradientUnits="userSpaceOnUse">
<stop stop-color="#191919"/>
<stop offset="0.666667" stop-color="#191919" stop-opacity="0.79"/>
<stop offset="1" stop-color="#191919" stop-opacity="0"/>
</linearGradient>
<linearGradient id="paint3_linear_9_257" x1="2023.84" y1="819.844" x2="2024.05" y2="1189.84" gradientUnits="userSpaceOnUse">
<stop stop-color="#191919"/>
<stop offset="0.666667" stop-color="#191919" stop-opacity="0.79"/>
<stop offset="1" stop-color="#191919" stop-opacity="0"/>
</linearGradient>
<linearGradient id="paint4_linear_9_257" x1="720.56" y1="-263.946" x2="720.665" y2="75.1988" gradientUnits="userSpaceOnUse">
<stop stop-color="#191919"/>
<stop offset="0.666667" stop-color="#191919" stop-opacity="0.79"/>
<stop offset="1" stop-color="#191919" stop-opacity="0"/>
</linearGradient>
<radialGradient id="paint5_radial_9_257" cx="0" cy="0" r="1" gradientUnits="userSpaceOnUse" gradientTransform="translate(730.967 -92.0506) rotate(90) scale(391.949 459.967)">
<stop offset="0.15625" stop-color="#191919"/>
<stop offset="0.604167" stop-color="#191919" stop-opacity="0.49"/>
<stop offset="1" stop-color="#191919" stop-opacity="0"/>
</radialGradient>
<linearGradient id="paint6_linear_9_257" x1="-91" y1="-39" x2="501.6" y2="694.311" gradientUnits="userSpaceOnUse">
<stop stop-color="#3170D7"/>
<stop offset="0.9375" stop-color="#78D2F8"/>
</linearGradient>
<linearGradient id="paint7_linear_9_257" x1="873.278" y1="-30" x2="873.853" y2="589.539" gradientUnits="userSpaceOnUse">
<stop stop-color="#191919"/>
<stop offset="0.666667" stop-color="#191919" stop-opacity="0.79"/>
<stop offset="1" stop-color="#191919" stop-opacity="0"/>
</linearGradient>
<clipPath id="clip0_9_257">
<rect width="1249" height="630" rx="16" fill="white"/>
</clipPath>
<clipPath id="clip1_9_257">
<rect width="1037" height="583" fill="white" transform="translate(212)"/>
</clipPath>
</defs>
</svg>
